<?xml version="1.0" encoding="UTF-8"?>
<svg width="971px" height="744px" viewBox="0 0 971 744" version="1.1" xmlns="http://www.w3.org/2000/svg" xmlns:xlink="http://www.w3.org/1999/xlink">
    <!-- Generator: Sketch 52.6 (67491) - http://www.bohemiancoding.com/sketch -->
    <title>Tablet</title>
    <desc>Created with Sketch.</desc>
    <g id="Tablet" stroke="none" stroke-width="1" fill="none" fill-rule="evenodd">
        <g id="Group" transform="translate(531.500000, 221.000000) scale(-1, 1) rotate(21.000000) translate(-531.500000, -221.000000) translate(262.500000, 91.000000)" stroke="#000000" stroke-width="3">
            <g id="windows" transform="translate(48.766082, 68.338369)">
                <path d="M217.091673,8.474604 C228.307007,-0.3966974 264.363655,1.83712955 271.957445,2.03176073 C277.017501,2.16145151 281.993472,3.41415938 287.04281,3.76754362 C297.942782,4.53039181 308.328905,2.26157833 319.372015,2.84527301 C321.137199,2.9385736 326.857014,7.06479596 326.86678,7.08032225 C328.084997,9.01708889 327.988862,11.5439786 328.114818,13.8276888 C328.619004,22.9691141 329.801477,47.6582526 328.550434,55.7757754 C328.30141,57.3915881 326.918625,59.0055384 325.35955,59.5040108 C322.525592,60.4100927 319.397191,59.3803883 316.433788,59.649747 C288.975547,62.145566 369.870586,62.4719901 285.463704,61.1288602 C284.17257,61.108315 282.948728,60.4998066 281.662959,60.3806029 C276.425767,59.895063 271.178552,59.4180001 265.919815,59.3169465 C257.547593,59.1560631 249.173233,59.6942434 240.800047,59.5953678 C233.572724,59.5100232 226.300902,59.6883979 219.132531,58.7644542 C218.008089,58.6195228 216.966141,57.5555365 216.616852,56.4783542 C215.634846,53.4499238 215.353411,50.1994965 215.323074,47.0163798 C215.210078,35.1602147 215.899538,23.3099648 216.187771,11.4567573 L217.091673,8.474604 Z" id="Path-25"></path>
                <path d="M338.607323,9.25498093 C340.344624,-4.65941531 359.268942,1.28727695 369.248095,1.65882995 C384.196256,2.21539359 378.732467,3.46815158 392.177877,2.78615942 C402.502411,2.26246758 412.05603,2.34868308 422.33017,2.53199787 C430.331125,2.67475368 438.336899,2.02655445 446.335427,2.26963755 C446.978278,2.28917442 447.527492,2.83452131 447.958902,3.31088005 C451.056617,6.73134828 448.127494,15.7236929 448.330392,19.6448593 C448.663853,26.089276 449.744587,32.502079 449.707575,38.9549884 C449.696887,40.8183385 448.357251,42.4796555 448.188774,44.3354245 C446.881831,58.7313921 451.631518,59.4264182 435.59094,59.7080992 C422.373865,59.9401981 409.154889,60.0802339 395.935882,60.1344347 C292.69704,60.5577367 396.410779,61.4112123 354.913903,58.5049312 C348.114978,58.0287607 344.197586,60.6543536 339.438558,56.2502723 C338.916828,55.7674544 338.741942,54.9657237 338.68121,54.2579736 C338.486461,51.9884029 338.834721,49.6970314 338.68121,47.4243073 C337.746739,33.5894822 338.548634,19.7815976 338.439023,5.84429684" id="Path-26"></path>
                <path d="M137.51404,8.90389459 C136.880508,2.85211517 137.446797,3.23679906 132.797549,1.64151522 C130.333186,0.795924853 127.076775,1.63157806 123.550803,1.41081746 C112.366483,0.710568803 97.722766,1.20417135 90.8663427,1.41081746 C34.1296147,3.12080875 25.377622,-3.45730198 16.2357732,13.1862863 C14.3643049,16.593469 13.5666988,20.5068835 11.8086752,23.9738045 C6.68239989,34.0831067 7.57565976,27.1157872 4.69494238,37.8112614 C3.79398987,41.1563012 -0.534448649,55.5507627 0.222690827,57.7096515 C0.690239207,59.0428074 8.68755631,61.3336523 9.40117129,61.4257394 C20.0684188,62.8022744 18.3449224,60.9760121 27.6596154,59.0132543 C29.0331816,58.7238215 30.4571954,58.7350017 31.8609458,58.7221984 C41.0971934,58.6379564 50.3353753,58.5757603 59.570844,58.7221984 C63.094094,58.7780632 66.6007974,59.3128097 70.1244546,59.3289066 C80.8156666,59.3777465 91.5061076,58.7288647 102.195773,58.9169189 C113.638416,59.1182196 110.757846,60.8590877 120.275655,60.0872919 C122.756919,59.886087 130.464237,60.1623798 132.797549,56.4982848 C140.347119,44.6428899 137.933626,27.3615256 137.51404,13.9897647 L137.51404,8.90389459 Z" id="Path-27"></path>
            </g>
            <g id="roof" transform="translate(59.777778, 64.018127)">
                <path d="M136.306583,1.12650769 C111.761954,1.41437821 87.8096523,0.157428169 63.2500981,0.434430563 C57.1785384,0.502910494 51.1353677,1.38722158 45.0640485,1.47441002 C42.9017685,1.50546189 12.6981805,1.84255108 12.6981805,1.30542889 C12.6981805,1.12650769 4.34719902,2.31374693 0.258957421,4.11225517" id="Path-24"></path>
                <path d="M196.861901,1.18959728 C209.924194,2.12932809 222.789771,1.21379794 235.794901,1.18501713 C349.592828,0.933178295 595.724863,0.406390167 296.4692,0.406390167 C292.691475,0.406390167 328.563408,0.922525456 328.946999,1.4529564 C329.569496,2.31374693 288.323348,-1.18220556 388.960872,0.896467135 C428.882806,1.72105651 406.075931,0.420130643 439.960396,0.420130643" id="Path-22"></path>
                <path d="M439.393669,0.624198074 C455.623617,1.02663918 451.134166,4.23213928 455.950244,0.597523999" id="Path-23"></path>
            </g>
            <g id="door" transform="translate(195.457602, 64.803625)">
                <path d="M1.00048925,0.302510051 C2.81351488,8.58364938 2.18671033,3.87195183 2.18671033,14.5125063" id="Path-12"></path>
                <path d="M2.18671033,14.5125063 C22.1552933,14.031649 41.559253,14.9424637 61.445127,14.7828511" id="Path-13"></path>
                <polyline id="Path-14" points="61.445127 14.7828511 61.445127 13.2471427 61.445127 13.1232347 61.445127 12.7252271 61.445127 12.6050739 61.445127 12.4811659 61.445127 12.2202081 61.445127 12.0963001 61.445127 11.9799016 61.445127 11.7358404 61.445127 11.619442 61.445127 11.5030435 61.445127 11.3903999 61.445127 11.2796336 61.445127 11.1557256 61.445127 10.9116644 61.445127 10.7915111 61.445127 10.6676031 61.445127 10.4066453 61.445127 10.2827373 61.445127 10.1625841 61.445127 10.0386761 61.445127 9.91852286 61.445127 9.79461484 61.445127 9.67821641 61.445127 9.55806318 61.445127 9.43415517 61.445127 9.31400194 61.445127 9.19760351 61.445127 9.07369549 61.445127 8.95729706 61.445127 8.84465341 61.445127 8.73388715 61.445127 8.6212435 61.445127 8.49733549 61.445127 8.37718227 61.445127 8.25327425 61.445127 8.13312103 61.445127 8.00921301 61.445127 7.76515177 61.445127 7.64499855 61.445127 7.52109054 61.445127 7.39718252 61.445127 7.28078409 61.445127 7.16063086 61.445127 7.04423242 61.445127 6.92032441 61.445127 6.80392597 61.445127 6.68377275 61.445127 6.56737431 61.445127 6.4434663 61.445127 6.32706786 61.445127 6.21254682 61.445127 6.09802577 61.445127 5.98538213 61.445127 5.8652289 61.445127 5.74132089 61.445127 5.61741287 61.445127 5.50101444 61.445127 5.38086121 61.445127 5.2569532 61.445127 5.13679997 61.445127 5.02040154 61.445127 4.89649352 61.445127 4.78197248 61.445127 4.66557404 61.445127 4.54166603 61.445127 4.42526759 61.445127 4.30886916 61.445127 4.19247072 61.445127 4.07607228 61.445127 3.95967384 61.445127 3.84327541 61.445127 3.60296896 61.445127 3.48657052 61.445127 3.36266251 61.445127 3.24626407 61.445127 3.12611084 61.445127 3.00971241 61.445127 2.89706876 61.445127 2.67553625 61.445127 2.45400374 61.445127 2.3394827 61.445127 2.22308426 61.445127 2.00155175 61.445127 1.88515331 61.445127 1.76875488 61.445127 1.64484686 61.445127 1.52469364 61.445127 1.40078563 61.445127 1.2806324 61.445127 1.15672439 61.445127 1.04220334"></polyline>
                <path d="M61.445127,1.04220334 C40.9641709,0.961475396 20.4832149,0.880747448 0.00225882954,0.800019499" id="Path-15"></path>
                <path d="M2.21490893,15.0607054 C2.46322242,139.385464 3.35530844,47.0947655 1.34639207,108.705125 C0.575645661,132.342726 1.75441098,101.016651 2.39913978,124.366347 C2.59278332,131.379401 2.22744164,138.39674 2.14159257,145.411936" id="Path-16"></path>
                <path d="M2.14159257,145.411936 C9.02514471,146.352544 15.5159137,145.267953 22.2810323,145.162242 C35.7120256,144.952371 49.1461512,145.253609 62.5787107,145.299292" id="Path-17"></path>
                <path d="M62.5787107,145.299292 C62.9051878,136.717723 63.4821749,128.142011 63.5581421,119.554586 C63.5670813,118.544079 62.9352484,117.616155 62.8324981,116.610832 C62.3900971,112.282318 62.0050942,107.939519 61.9263831,103.589226 C61.6195832,86.6326628 61.9440582,69.669069 61.6763555,52.711845 C61.6468736,50.8443549 61.0416252,49.0130828 61.0353074,47.1453713 C60.9093063,9.89639717 62.3855105,37.4863667 60.9601111,15.192123" id="Path-18"></path>
                <path d="M30.4224846,14.4298929 C30.4224846,51.3071928 31.1859902,88.4129976 32.0454393,125.323769 C32.6432046,150.996002 33.830351,124.965579 32.5798026,145.223525" id="Path-21"></path>
                <path d="M14.3588751,20.0033576 C0.314787944,23.5650236 6.53141971,28.3887863 6.89840557,45.735581 C7.1672226,58.442103 -0.296004733,80.3015558 20.2099905,75.3950147 C21.9329752,74.9827502 23.3417996,72.5648424 23.5170687,70.9654472 C24.0373674,66.2175306 24.2292419,61.4369161 24.3956707,56.6635447 C26.4651453,-2.69136987 24.2381553,66.6430823 23.7328955,41.8219477 C23.4476083,27.8070698 28.8295482,17.7812759 11.947393,20.7161616" id="Path-19"></path>
                <path d="M36.9629081,25.8721103 C37.5811826,34.9993129 38.1353872,39.3335238 37.7429435,48.4238702 C37.4514211,55.1765332 33.079551,70.1559494 39.5137429,73.0325787 C41.7511544,74.0328914 54.7407303,78.0186992 54.9122199,71.6510968 C55.3463676,55.5307066 55.1296684,39.3838366 54.3701038,23.2754673 C54.3247591,22.3138244 53.4045011,21.4473715 52.5262292,21.0505006 C51.3770732,20.5312233 50.0164915,20.7479808 48.7552083,20.7382246 C39.4541634,20.6662796 42.3842368,19.520557 37.0835672,23.0667175 L36.9629081,25.8721103 Z" id="Path-20"></path>
                <rect id="Rectangle" x="20.4502924" y="84.4410876" width="6.68567251" height="9.03323263"></rect>
                <rect id="Rectangle-Copy" x="35.001462" y="84.4410876" width="6.68567251" height="9.03323263"></rect>
            </g>
            <g id="outline" transform="translate(19.663743, 22.779456)">
                <path d="M41.6512168,2.05785353 C42.9947336,15.999445 44.8104621,26.2709258 42.2899252,40.5776126 C41.9318848,42.6098666 39.5557041,43.735577 38.6579351,45.59409 C37.8750773,47.2147202 38.1483136,49.2216068 37.338039,50.828741 C26.5117833,72.3020103 22.9071913,76.3840461 15.6310577,95.6225058 C14.3710741,98.953965 12.2472277,101.958273 11.3011915,105.391834 C8.99559243,113.759819 7.33682035,122.305283 5.91995983,130.868146 C5.0902711,135.882409 5.10751257,141.001327 4.57275551,146.055452 C4.4486749,147.228169 4.28358878,148.407511 3.94466701,149.537139 C3.89588123,149.699742 3.62910563,149.663397 3.47132495,149.726525" id="Path"></path>
                <path d="M3.74251601,149.991057 C3.59743787,155.15648 4.27892725,160.411795 3.30728159,165.487326 C3.14442899,166.33801 1.42716222,165.269685 0.721290237,165.772864 C0.1743343,166.16276 0.166744229,167.042594 0.184395226,167.713467 C0.354672532,174.185303 0.190065314,180.723211 1.28254143,187.104689 C1.49298904,188.333977 3.47381821,188.576915 3.95324995,189.728469 C4.77209291,191.695259 3.09718507,195.069289 4.9995069,196.03252 C9.19560477,198.157194 13.1672415,194.30217 17.3205591,195.149466 C26.001118,196.920341 33.5701316,195.764005 42.4031927,195.519609 C47.6724055,195.373818 53.0009216,196.628249 58.213533,195.845334 C59.3272106,195.678063 59.4871187,193.959867 59.8581049,192.897944 C65.2323738,177.514456 61.7955985,179.513985 69.9955722,169.814817 C72.1549853,167.2606 74.3630607,164.71241 76.9053157,162.537821 C78.7816719,160.932827 85.3959377,159.423666 86.925238,159.271051 C92.331631,158.731529 102.327417,157.989069 108.729317,159.473043 C124.158412,163.049542 126.815663,184.912335 129.176863,196.350842" id="Path-2"></path>
                <path d="M129.145094,195.419141 C264.626993,200.507036 107.234238,193.582609 171.6011,198.276639 C182.185802,199.048541 184.249124,195.84047 197.030015,195.222437 C205.767142,194.799944 214.515423,195.882411 223.262684,195.92465 C241.675326,196.013562 260.087822,195.71878 278.500391,195.615846" id="Path-3"></path>
                <path d="M278.468622,195.861197 C284.376585,195.411034 290.268232,194.410209 296.192511,194.510707 C368.217413,195.732517 220.063447,198.595468 321.503881,195.939456" id="Path-4"></path>
                <path d="M321.503881,195.939456 C321.503881,179.255424 332.770747,159.47636 350.895442,158.69363 C357.255992,158.418944 363.63772,158.350306 369.994926,158.69363 C370.992534,158.747506 371.864302,159.241415 372.749292,159.873855 C385.542313,169.016112 388.634985,177.927371 389.674722,179.752607 C391.620468,183.168321 391.765158,196.672367 392.043626,201.256813" id="Path-5"></path>
                <path d="M391.898548,195.863312 C406.168963,195.534643 422.985447,194.868436 437.105743,195.819953 C441.593736,196.122382 445.965673,197.407641 450.431753,197.943511 C452.115288,198.145513 453.879651,198.465799 455.517959,198.029173 C462.348061,196.208879 463.876545,193.547946 469.977061,192.780556 C479.714579,191.555665 471.448097,193.496179 481.598137,194.187097 C489.441914,194.721026 497.318113,194.540318 505.1781,194.716929" id="Path-6"></path>
                <path d="M507.32568,194.594253 C507.494409,185.739041 508.036145,176.883082 507.831865,168.028617 C507.723158,163.316724 501.18527,167.099074 500.94436,162.716547 C499.493174,136.317204 500.469529,166.172895 503.21478,149.94664 C503.765562,146.691156 502.957439,143.320919 503.350328,140.042692 C503.511786,138.6955 504.723355,137.610249 504.855116,136.259838 C505.937674,125.164791 503.938213,129.396687 503.571651,119.395101 C503.211552,109.56984 503.371154,99.7324404 503.270905,89.9011104" id="Path-7"></path>
                <path d="M503.343974,90.2934611 C501.207745,73.8752407 503.428161,93.8268901 502.717067,68.278459 C502.53114,61.5984109 496.618233,42.3761007 496.386577,41.6758083 C494.095473,34.749845 490.172201,25.6407288 482.663456,22.6473252 C476.919126,20.3573159 472.797451,20.5084907 466.863705,20.1166099" id="Path-8"></path>
                <path d="M467.630395,19.7961725 C85.7236874,17.3749691 609.685256,19.6367425 437.033734,20.9933182 C432.472191,21.0291597 427.956002,20.0093066 423.397447,19.8405896 C403.669018,19.110419 383.917793,18.5364047 364.278635,19.2525922 C354.413228,19.6123573 350.572786,17.9465611 320.912979,18.0850579 C292.800553,18.2163291 287.739506,19.6680611 268.532358,18.2648413" id="Path-9"></path>
                <path d="M269.077725,18.7153572 C267.448027,18.0804367 280.673979,18.0804367 235.28299,19.6925327 C219.698844,20.2460157 204.086286,20.1117419 188.501115,19.5878353 C157.886742,18.5587115 148.871376,20.6133066 132.419413,20.0817108 C100.537419,19.0515399 100.768618,24.5979179 81.0331594,10.396675" id="Path-10"></path>
                <path d="M81.132702,10.352258 C80.6945786,10.1853436 45.7638703,-5.39524858 41.3632895,2.67762329" id="Path-11"></path>
            </g>
            <g id="wheels" transform="translate(82.767544, 188.519637)">
                <path d="M1.59848794,22.3867069 C-0.741243116,26.5704936 0.217910803,33.5040639 1.59848794,38.1551809 C3.74533697,45.3878418 5.53760113,51.3400645 10.9205441,56.9005905 C15.3475512,61.4736444 23.382172,62.5723471 29.6767929,64.5991414 C35.5990236,66.5060304 40.4657902,64.966945 43.4081614,63.3010347 C46.2218161,61.7080011 49.4719563,60.1013279 52.4835683,56.9005905 C57.3675544,51.7098964 59.9200686,46.1010728 60.5423854,38.1551809 C60.9579689,32.8489088 61.5540881,27.736475 59.1412269,22.3867069 C58.6019265,21.1909765 57.7684595,14.1375655 53.941851,9.24662141 C49.9743866,4.17564374 43.9579991,2.03888593 43.4081614,2.59955946 C31.8344739,-0.143181976 24.2581401,1.03915128 17.0289009,5.75056404 C10.8979886,9.74617926 6.31143828,13.9592516 1.59848794,22.3867069 Z" id="Path-28"></path>
                <path d="M263.072451,21.991266 C260.732719,26.1750527 260.077032,33.5040639 261.457609,38.1551809 C263.604459,45.3878418 265.56102,51.3400645 270.943963,56.9005905 C275.370971,61.4736444 281.902504,62.5223095 288.197125,64.5491038 C310.45511,71.7159148 324.107311,52.6740169 323.190538,32.6555919 C322.999236,28.478359 323.394745,25.4240087 321.567503,21.3726687 C321.028203,20.1769382 318.930077,14.0894695 315.103469,9.19852539 C311.136004,4.12754773 306.133394,1.15803621 305.583556,1.71870973 C284.194553,-3.35007273 273.342656,3.62661241 263.072451,21.991266 Z" id="Path-28-Copy"></path>
                <path d="M33.3012328,27.9745402 C31.6422715,27.9217974 29.7839441,27.0270998 28.3243489,27.8163119 C22.8275381,30.7884711 25.3516012,36.2461925 29.5328432,37.7164437 C35.1622676,39.6959196 39.74149,31.3115637 33.8511132,28.1451787 L33.3012328,27.9745402 Z" id="Path-29"></path>
                <path d="M294.435736,27.9745402 C292.776774,27.9217974 290.918447,27.0270998 289.458852,27.8163119 C283.962041,30.7884711 286.486104,36.2461925 290.667346,37.7164437 C296.296771,39.6959196 300.875993,31.3115637 294.985616,28.1451787 L294.435736,27.9745402 Z" id="Path-29-Copy"></path>
            </g>
        </g>
        <g id="text" transform="translate(480.720700, 160.481819) rotate(-21.000000) translate(-480.720700, -160.481819) translate(329.720700, 154.981819)" stroke="#000000">
            <path d="M33.5464564,2.04830564 C33.8942862,10.627381 31.3370697,9.5906592 36.9637372,9.5906592" id="Path-38"></path>
            <path d="M38.2935898,2.10694006 C38.7487848,8.261851 39.0805915,5.71253872 38.1599857,9.8182773" id="Path-39"></path>
            <path d="M43.7728156,3.75088907 C39.810891,-1.71963464 38.1961375,8.2641104 41.780767,9.65803416 C42.2979951,9.85916417 43.1475879,10.226914 43.4426277,9.75672937 C46.2558854,5.27343409 43.6084331,6.06959363 41.1160227,5.90870872" id="Path-40"></path>
            <path d="M45.8405853,1.86366183 C45.8159517,4.62202909 45.7913181,7.38039634 45.7666844,10.1387636" id="Path-41"></path>
            <path d="M45.9141222,5.45201575 C47.1450762,5.50773666 48.3760302,5.56345757 49.6069843,5.61917849" id="Path-42"></path>
            <path d="M49.2010752,1.77844161 C49.2639335,4.57055705 49.3267918,7.36267248 49.38965,10.1547879" id="Path-43"></path>
            <path d="M50.2345961,2.46967228 C51.7353067,2.51203959 53.2360173,2.55440691 54.7367278,2.59677423" id="Path-44"></path>
            <path d="M52.039162,2.68527215 C52.019625,5.11866144 52.000088,7.55205074 51.9805509,9.98544004" id="Path-45"></path>
            <path d="M61.1067692,1.90954964 C61.2326071,4.43034429 61.358445,6.95113894 61.4842828,9.47193359" id="Path-46"></path>
            <path d="M61.2221712,1.96891244 C61.3121091,1.96353484 65.3792494,0.914721168 65.6988199,2.72569712 C65.8249165,3.44027492 65.7842209,4.46155472 65.1625831,4.83544382 C64.0783141,5.48758625 61.8611294,4.13538351 61.3972763,5.31289556 C60.9802499,6.37153619 64.4509883,4.74032004 64.7697797,5.83259322 L65.7031884,7.40006255 C65.8090837,7.76289083 65.8278196,8.26242044 65.5553866,8.52431389 C65.0841207,8.97734787 64.390956,9.17250791 63.7464521,9.28109857 C63.0098784,9.4052018 62.2533864,9.23132608 61.5068536,9.20643983" id="Path-47"></path>
            <path d="M66.602013,2.01407188 C66.8494938,4.75469237 65.5166157,7.99965279 68.3916531,9.01888252 C69.3628641,9.36318657 69.7544329,8.18354211 69.8176134,7.48346182 C69.9773673,5.71328504 69.8040224,3.92873469 69.7972269,2.15137112" id="Path-48"></path>
            <path d="M75.2324034,2.26172038 C74.5396277,2.19859429 73.7472003,1.70870893 73.1540764,2.07234211 C69.5030855,4.31069611 74.5388764,5.59957644 75.3601828,6.49323201 C77.2182847,8.51501456 74.5475613,10.2156944 72.8297132,8.66306989" id="Path-49"></path>
            <path d="M82.6942127,3.47082775 C86.1719845,0.280264416 84.2719747,1.30650061 84.2978263,9.74944559" id="Path-50"></path>
            <path d="M89.6387154,3.11210162 C85.2798021,0.516352532 85.8611629,9.32106321 88.1956451,9.76255639 C91.428526,10.3739531 89.609062,3.27982809 86.8858149,6.52782996" id="Path-51"></path>
            <path d="M99.9120363,3.04581923 C99.3579274,2.46894463 95.2730565,1.47417525 96.8577074,4.07283212 C97.5121064,5.14597617 99.3808391,4.93947563 100.126458,5.95131883 C100.944799,7.06184954 99.325577,12.0154653 96.7131819,7.17936403" id="Path-52"></path>
            <path d="M101.343457,2.36915612 C101.357655,4.65650564 101.371853,6.94385516 101.38605,9.23120468" id="Path-53"></path>
            <path d="M101.502908,2.28175077 C102.83264,2.27264604 104.162371,2.26354132 105.492102,2.2544366" id="Path-54"></path>
            <path d="M101.562976,5.42506576 C102.682047,5.4007865 103.801118,5.37650724 104.920189,5.35222797" id="Path-55"></path>
            <path d="M101.347462,9.02288859 C102.819898,8.98829064 104.292335,8.95369269 105.764771,8.91909474" id="Path-56"></path>
            <path d="M108.341474,2.12478532 C107.672604,4.46166454 107.003734,6.79854376 106.334864,9.13542299" id="Path-57"></path>
            <path d="M108.340746,2.32217574 C110.409572,7.22883764 109.729057,4.80050347 110.545761,9.55933895" id="Path-58"></path>
            <polyline id="Path-59" points="107.294848 6.95975808 107.721508 6.95975808 108.005462 6.95975808 108.295605 6.95975808 108.716076 6.95975808 108.929405 6.95975808 109.098686 6.95975808 109.267602 6.95975808 109.373903 6.95975808 109.480204 6.95975808 109.554833 6.95975808 109.602159 6.95975808 109.649484 6.95975808 109.69681 6.95975808 109.744136 6.95975808 109.791462 6.95975808 109.814032 6.95975808 109.836603 6.95975808 109.858446 6.95975808"></polyline>
            <path d="M110.920362,2.38372368 C112.432722,2.43823063 113.945082,2.49273758 115.457442,2.54724453" id="Path-60"></path>
            <path d="M113.084967,2.52065873 C113.175008,4.895535 113.265048,7.27041127 113.355088,9.64528754" id="Path-61"></path>
            <path d="M119.89259,3.28035692 C118.322592,2.23004729 114.723124,2.61624919 117.142237,5.17413956 C117.867096,5.9405811 119.31153,5.91983167 119.835435,6.83556964 C122.697465,11.8381364 117.233988,8.92854636 116.109809,7.76315895" id="Path-62"></path>
            <path d="M132.81069,1.86220508 C131.295418,2.97201026 129.780145,4.08181545 128.264873,5.19162064" id="Path-63"></path>
            <path d="M132.60901,1.91209897 C134.13763,3.02955212 135.666251,4.14700527 137.194871,5.26445843" id="Path-64"></path>
            <path d="M132.659976,4.45595892 C127.239114,11.0490455 126.820109,9.10806452 136.34228,9.13760812" id="Path-65"></path>
            <path d="M134.601786,7.38112472 C135.432899,8.19435869 136.264011,9.00759266 137.095123,9.82082663" id="Path-66"></path>
            <path d="M147.074661,4.0338639 C149.966019,3.96903826 152.857378,3.90421263 155.748736,3.83938699" id="Path-67"></path>
            <path d="M146.319634,6.30603888 C149.717377,6.27326187 153.115121,6.24048487 156.512865,6.20770786" id="Path-68"></path>
            <path d="M149.46643,1.20375142 C149.557077,2.80424054 149.647724,4.40472967 149.73837,6.00521879" id="Path-69"></path>
            <path d="M152.84403,1.55701472 C152.92691,3.00927893 153.009791,4.46154315 153.092672,5.91380736" id="Path-70"></path>
            <path d="M149.119132,7.31120044 C148.332797,8.29026178 147.546462,9.26932313 146.760127,10.2483845" id="Path-71"></path>
            <path d="M152.26702,7.4576044 C153.326995,8.28431336 154.386969,9.11102232 155.446944,9.93773128" id="Path-72"></path>
            <path d="M169.162665,0.898925252 C169.464282,10.9646772 172.055065,12.197422 168.051238,9.43697145" id="Path-73"></path>
            <path d="M166.986774,3.79022148 C166.215971,4.99580837 165.445169,6.20139525 164.674367,7.40698214" id="Path-74"></path>
            <path d="M171.690586,3.92897748 C172.427896,4.98087662 173.165207,6.03277576 173.902517,7.0846749" id="Path-75"></path>
            <path d="M201.307383,2.26536227 C201.623859,4.58330366 200.581469,7.58698379 202.25681,9.21918645 C203.821735,10.743817 207.275567,11.1302011 208.800864,9.56589435 L209.665833,9.31933841 C209.845318,9.1352633 209.744952,8.81117341 209.784511,8.5570909" id="Path-76"></path>
            <path d="M201.151208,2.12806302 C210.196325,1.89119683 208.695985,-0.621644348 208.971237,6.11593224" id="Path-77"></path>
            <polyline id="Path-78" points="201.506151 5.31216718 201.807944 5.31216718 201.895314 5.31216718 202.185093 5.31216718 202.429367 5.31216718 202.58627 5.31216718 202.713321 5.31216718 202.997275 5.31216718 203.153814 5.31216718 203.325643 5.31216718 203.484002 5.31216718 203.769049 5.31216718 203.8961 5.31216718 204.141101 5.31216718 204.259416 5.31216718 204.346786 5.31216718 204.429788 5.31216718 204.517159 5.31216718 204.599069 5.31216718 204.686439 5.31216718 204.737041 5.31216718 204.872466 5.31216718 204.925616 5.31216718 204.976218 5.31216718 205.029369 5.31216718 205.133121 5.31216718 205.215031 5.31216718 205.268182 5.31216718 205.371934 5.31216718 205.422536 5.31216718 205.560873 5.31216718 205.664625 5.31216718 205.855749 5.31216718 205.959865 5.31216718 206.063618 5.31216718 206.20159 5.31216718 206.305343 5.31216718 206.440767 5.31216718 206.575828 5.31216718 206.745108 5.31216718 206.883081 5.31216718 207.018141 5.31216718 207.100051 5.31216718 207.153201 5.31216718 207.235475 5.31216718 207.3709 5.31216718 207.42405 5.31216718 207.527802 5.31216718 207.578769 5.31216718 207.631919 5.31216718 207.682521 5.31216718 207.735672 5.31216718 207.786274 5.31216718 207.839424 5.31216718 207.890026 5.31216718 207.996327 5.31216718 208.072412 5.31216718 208.125563 5.31216718 208.148862 5.31216718 208.202012 5.31216718 208.225311 5.31216718 208.278461 5.31216718 208.35491 5.31216718 208.378209 5.31216718 208.452838 5.31216718 208.500164 5.31216718 208.54749 5.31216718 208.61957 5.31216718 208.667624 5.31216718 208.715314 5.31216718 208.76264 5.31216718 208.809965 5.31216718 208.857291 5.31216718 208.881318 5.31216718 208.904617 5.31216718 208.928644 5.31216718 208.951943 5.31216718 208.974513 5.31216718 208.99672 5.31216718 209.018563 5.31216718 209.040041 5.31216718"></polyline>
            <path d="M205.22486,2.16630287 C205.239907,3.08551582 205.254955,4.00472878 205.270002,4.92394174" id="Path-79"></path>
            <path d="M218.60202,4.31683873 C222.128029,4.31283265 225.654037,4.30882657 229.180046,4.30482049" id="Path-80"></path>
            <path d="M223.646941,0.655647021 C223.871193,3.2514646 224.095444,5.84728218 224.319695,8.44309975" id="Path-81"></path>
            <path d="M219.805913,8.8047394 C222.500203,8.72813832 225.194492,8.65153724 227.888782,8.57493616" id="Path-82"></path>
            <path d="M237.155521,4.84454855 C239.922862,4.85353188 242.690203,4.8625152 245.457544,4.87149853" id="Path-83"></path>
            <path d="M241.427213,1.81413213 C241.579262,4.51313658 241.731311,7.21214104 241.88336,9.91114549" id="Path-84"></path>
            <path d="M259.638877,0.761261822 C260.132156,1.13904718 260.625436,1.51683254 261.118715,1.89461789" id="Path-85"></path>
            <polyline id="Path-86" points="256.274746 3.01449898 256.603842 3.01449898 256.691213 3.01449898 256.950412 3.01449898 257.106223 3.01449898 257.278052 3.01449898 257.625714 3.01449898 257.954081 3.01449898 258.284633 3.01449898 258.628291 3.01449898 258.755342 3.01449898 258.911881 3.01449898 259.038932 3.01449898 259.293035 3.01449898 259.50236 3.01449898 259.619582 3.01449898 259.746634 3.01449898 259.951954 3.01449898 260.069177 3.01449898 260.156547 3.01449898 260.401185 3.01449898 260.606141 3.01449898 260.811098 3.01449898 261.016419 3.01449898 261.226108 3.01449898 261.396117 3.01449898 261.565761 3.01449898 261.852628 3.01449898 262.022273 3.01449898 262.191917 3.01449898 262.361562 3.01449898 262.531206 3.01449898 262.735799 3.01449898 262.905443 3.01449898 263.130786 3.01449898 263.212696 3.01449898 263.43804 3.01449898 263.5731 3.01449898 263.70816 3.01449898 263.846133 3.01449898 263.949885 3.01449898 264.026335 3.01449898 264.130087 3.01449898 264.206536 3.01449898 264.281165 3.01449898 264.355794 3.01449898 264.430423 3.01449898 264.507601 3.01449898 264.554926 3.01449898 264.626279 3.01449898 264.702728 3.01449898 264.750054 3.01449898 264.79738 3.01449898 264.844705 3.01449898 264.892031 3.01449898 264.939357 3.01449898 264.986683 3.01449898 265.009981 3.01449898 265.032552 3.01449898 265.055123 3.01449898 265.076965 3.01449898"></polyline>
            <path d="M258.884942,5.49681099 C257.901416,6.86106287 256.917891,8.22531475 255.934365,9.58956663" id="Path-87"></path>
            <path d="M260.778334,5.80855675 C262.272128,6.88194304 263.765922,7.95532933 265.259716,9.02871562" id="Path-88"></path>
            <path d="M277.969947,0.280896571 C278.373914,0.619470916 278.777882,0.958045262 279.181849,1.29661961" id="Path-89"></path>
            <path d="M274.443817,2.08508873 C277.295009,1.977046 280.146202,1.86900327 282.997394,1.76096054" id="Path-90"></path>
            <path d="M274.519174,2.21000554 C274.804236,8.9627064 275.480837,6.48563013 274.260339,9.90932455" id="Path-91"></path>
            <path d="M275.646254,5.90324588 C278.053434,5.95386815 280.460614,6.00449041 282.867794,6.05511268" id="Path-92"></path>
            <path d="M278.78941,3.09571312 C278.917311,4.94045164 279.045211,6.78519017 279.173112,8.6299287" id="Path-93"></path>
            <polyline id="Path-94" points="275.147878 8.81056642 275.490079 8.81056642 275.704501 8.81056642 275.918923 8.81056642 276.207246 8.81056642 276.334297 8.81056642 276.461349 8.81056642 276.633177 8.81056642 276.789352 8.81056642 276.916404 8.81056642 277.244771 8.81056642 277.533458 8.81056642 277.786833 8.81056642 278.085713 8.81056642 278.212764 8.81056642 278.329986 8.81056642 278.628866 8.81056642 278.882969 8.81056642 279.165831 8.81056642 279.410105 8.81056642 279.654014 8.81056642 279.858607 8.81056642 280.073029 8.81056642 280.20008 8.81056642 280.369361 8.81056642 280.45127 8.81056642 280.504421 8.81056642 280.591063 8.81056642 280.678434 8.81056642 280.731584 8.81056642 280.78255 8.81056642 280.923071 8.81056642 280.976222 8.81056642 281.029372 8.81056642 281.135673 8.81056642 281.239426 8.81056642 281.314055 8.81056642 281.420356 8.81056642 281.444018 8.81056642 281.521196 8.81056642 281.545223 8.81056642 281.598373 8.81056642 281.6224 8.81056642 281.646427 8.81056642 281.699577 8.81056642 281.723604 8.81056642 281.747631 8.81056642 281.771658 8.81056642 281.795685 8.81056642 281.848835 8.81056642 281.896889 8.81056642 281.944943 8.81056642 281.992997 8.81056642 282.04105 8.81056642 282.089104 8.81056642 282.137158 8.81056642 282.161185 8.81056642 282.183756 8.81056642 282.206326 8.81056642 282.228897 8.81056642 282.251104 8.81056642 282.273675 8.81056642 282.295881 8.81056642 282.318452 8.81056642 282.341023 8.81056642 282.36505 8.81056642 282.411647 8.81056642 282.459701 8.81056642 282.482272 8.81056642 282.530326 8.81056642 282.578379 8.81056642 282.60095 8.81056642 282.649004 8.81056642 282.671575 8.81056642 282.694145 8.81056642 282.716716 8.81056642 282.738923 8.81056642 282.760401 8.81056642 282.78188 8.81056642 282.804087 8.81056642 282.826293 8.81056642 282.848136 8.81056642 282.869615 8.81056642 282.891457 8.81056642 282.912936 8.81056642 282.934778 8.81056642 282.956621 8.81056642 282.9781 8.81056642 282.999942 8.81056642 283.021421 8.81056642 283.043264 8.81056642 283.065106 8.81056642 283.086949 8.81056642 283.108427 8.81056642 283.129906 8.81056642 283.151385 8.81056642"></polyline>
            <path d="M277.331778,3.21371034 C276.931329,3.85917459 276.530881,4.50463884 276.130433,5.15010309" id="Path-95"></path>
            <path d="M276.980475,4.09504765 C277.346825,4.3573851 277.713174,4.61972256 278.079524,4.88206001" id="Path-96"></path>
            <path d="M281.133125,3.47701897 C280.745782,4.01844657 280.358439,4.55987417 279.971096,5.10130177" id="Path-97"></path>
            <path d="M280.89686,4.18318138 C281.243066,4.45450216 281.589272,4.72582294 281.935478,4.99714373" id="Path-98"></path>
            <path d="M296.640306,1.30390339 C297.2519,1.65364619 297.863494,2.003389 298.475087,2.35313181" id="Path-99"></path>
            <path d="M295.156463,2.98609224 C297.364632,2.89285986 299.572801,2.79962748 301.780971,2.70639511" id="Path-100"></path>
            <path d="M295.720003,4.92612688 C296.603052,5.82955831 297.486101,6.73298975 298.369151,7.63642119" id="Path-101"></path>
            <path d="M301.226168,4.53935819 C300.611783,5.61383705 299.997398,6.6883159 299.383013,7.76279476" id="Path-102"></path>
            <path d="M294.804796,8.78106712 C297.066601,8.75108223 299.328407,8.72109733 301.590212,8.69111244" id="Path-103"></path>
            <path d="M294.893259,1.71361598 C293.886556,2.59786679 292.879853,3.48211761 291.87315,4.36636843" id="Path-104"></path>
            <path d="M293.496058,3.09425636 C293.47822,5.37893516 293.460382,7.66361396 293.442544,9.94829277" id="Path-105"></path>
            <polyline id="Path-106" points="181.916023 1.95750261 182.360191 1.95750261 182.455761 1.95750261 182.551331 1.95750261 182.639781 1.95750261 182.830921 1.95750261 182.926491 1.95750261 183.014941 1.95750261 183.080662 1.95750261 183.146384 1.95750261 183.212105 1.95750261 183.273719 1.95750261 183.379421 1.95750261 183.445142 1.95750261 183.485123 1.95750261 183.542629 1.95750261 183.600683 1.95750261 183.636282 1.95750261 183.671881 1.95750261 183.729935 1.95750261 183.765535 1.95750261 183.801134 1.95750261 183.83728 1.95750261 183.87288 1.95750261 183.909026 1.95750261 183.944078 1.95750261 183.980225 1.95750261 183.997203 1.95750261 184.032802 1.95750261 184.068949 1.95750261 184.105095 1.95750261 184.140695 1.95750261 184.198748 1.95750261 184.302534 1.95750261 184.382495 1.95750261 184.483815 1.95750261 184.615258 1.95750261 184.716853 1.95750261 184.888276 1.95750261 184.992061 1.95750261 185.032042 1.95750261 185.097763 1.95750261 185.283426 1.95750261 185.36147 1.95750261 185.441432 1.95750261 185.547134 1.95750261 185.630928 1.95750261 185.71089 1.95750261 185.788934 1.95750261 185.894636 1.95750261 185.974597 1.95750261 186.054558 1.95750261 186.132602 1.95750261 186.252544 1.95750261 186.292524 1.95750261 186.410549 1.95750261 186.488593 1.95750261 186.568554 1.95750261 186.626061 1.95750261 186.684115 1.95750261 186.742169 1.95750261 186.839929 1.95750261 186.857455 1.95750261 186.915509 1.95750261 186.973015 1.95750261 187.031069 1.95750261 187.107197 1.95750261 187.143343 1.95750261 187.161417 1.95750261 187.215089 1.95750261 187.251236 1.95750261 187.286835 1.95750261 187.344889 1.95750261 187.381036 1.95750261 187.43909 1.95750261 187.492762 1.95750261 187.510836 1.95750261 187.586415 1.95750261 187.604489 1.95750261 187.658709 1.95750261 187.69869 1.95750261 187.752362 1.95750261 187.788509 1.95750261 187.806582 1.95750261 187.841634 1.95750261 187.858612 1.95750261 187.87559 1.95750261 187.892294 1.95750261 187.908998 1.95750261 187.925429 1.95750261"></polyline>
            <path d="M184.426035,2.31281376 C184.532418,5.25802907 185.200988,4.3032385 183.091342,5.54513159" id="Path-107"></path>
            <path d="M186.413835,2.28624076 C186.431726,3.30852508 186.449617,4.3308094 186.467508,5.35309372" id="Path-108"></path>
            <polyline id="Path-109" points="182.247095 3.88692158 182.462059 3.88692158 182.520113 3.88692158 182.558177 3.88692158 182.598157 3.88692158 182.615683 3.88692158 182.655664 3.88692158 182.694001 3.88692158 182.733982 3.88692158 182.772045 3.88692158 182.812026 3.88692158 182.829552 3.88692158 182.869532 3.88692158 182.90787 3.88692158 182.94785 3.88692158 182.986188 3.88692158 183.004261 3.88692158 183.042325 3.88692158 183.082305 3.88692158 183.120369 3.88692158 183.138442 3.88692158 183.17678 3.88692158 183.194853 3.88692158 183.232917 3.88692158 183.25099 3.88692158 183.290971 3.88692158 183.348477 3.88692158 183.384076 3.88692158 183.401602 3.88692158 183.419675 3.88692158 183.458013 3.88692158 183.476086 3.88692158 183.493612 3.88692158 183.511685 3.88692158 183.529211 3.88692158 183.547285 3.88692158 183.585348 3.88692158 183.603422 3.88692158 183.620947 3.88692158 183.639021 3.88692158 183.677358 3.88692158 183.695432 3.88692158 183.712957 3.88692158 183.731031 3.88692158 183.769368 3.88692158 183.787442 3.88692158 183.804967 3.88692158 183.823041 3.88692158 183.861104 3.88692158 183.879178 3.88692158 183.896704 3.88692158 183.936684 3.88692158 183.95421 3.88692158 183.99419 3.88692158 184.011716 3.88692158 184.051697 3.88692158 184.069222 3.88692158 184.109203 3.88692158 184.126729 3.88692158 184.144802 3.88692158 184.182866 3.88692158 184.222846 3.88692158 184.280353 3.88692158 184.336216 3.88692158 184.37428 3.88692158 184.41426 3.88692158 184.471766 3.88692158 184.527903 3.88692158 184.58404 3.88692158 184.662085 3.88692158 184.719591 3.88692158 184.797635 3.88692158 184.815161 3.88692158 184.895122 3.88692158 184.913195 3.88692158 184.951533 3.88692158 184.991513 3.88692158 185.009039 3.88692158 185.04902 3.88692158 185.067093 3.88692158 185.107074 3.88692158 185.147054 3.88692158 185.165128 3.88692158 185.203191 3.88692158 185.243172 3.88692158 185.281236 3.88692158 185.299309 3.88692158 185.337646 3.88692158 185.377627 3.88692158 185.417608 3.88692158 185.457588 3.88692158 185.52331 3.88692158 185.541383 3.88692158 185.579447 3.88692158 185.619427 3.88692158 185.657491 3.88692158 185.697471 3.88692158 185.735535 3.88692158 185.775516 3.88692158 185.815496 3.88692158 185.855477 3.88692158 185.895457 3.88692158 185.913531 3.88692158 185.953511 3.88692158 185.993492 3.88692158 186.031555 3.88692158 186.071536 3.88692158 186.089062 3.88692158 186.129042 3.88692158 186.20873 3.88692158 186.266783 3.88692158 186.324837 3.88692158 186.364818 3.88692158 186.382344 3.88692158 186.422324 3.88692158 186.43985 3.88692158 186.479831 3.88692158 186.497356 3.88692158 186.537337 3.88692158 186.554863 3.88692158 186.594843 3.88692158 186.612916 3.88692158 186.652897 3.88692158 186.670697 3.88692158 186.710677 3.88692158 186.728477 3.88692158 186.74655 3.88692158 186.764076 3.88692158 186.804056 3.88692158 186.82213 3.88692158 186.839655 3.88692158 186.857729 3.88692158 186.875255 3.88692158 186.893328 3.88692158 186.931392 3.88692158 186.949465 3.88692158 186.966991 3.88692158 186.985064 3.88692158 187.00259 3.88692158 187.020663 3.88692158 187.038189 3.88692158 187.056262 3.88692158 187.07324 3.88692158 187.090219 3.88692158 187.107197 3.88692158 187.124175 3.88692158 187.1417 3.88692158 187.158678 3.88692158 187.175656 3.88692158 187.192634 3.88692158 187.209886 3.88692158 187.244938 3.88692158 187.261916 3.88692158 187.279989 3.88692158 187.296967 3.88692158 187.314493 3.88692158 187.332566 3.88692158 187.367618 3.88692158 187.385144 3.88692158 187.420743 3.88692158 187.456889 3.88692158 187.474963 3.88692158 187.493036 3.88692158 187.510014 3.88692158 187.528088 3.88692158 187.545066 3.88692158 187.56177 3.88692158 187.579022 3.88692158 187.595726 3.88692158 187.612156 3.88692158 187.628587 3.88692158 187.645017 3.88692158 187.661447 3.88692158 187.677604 3.88692158 187.694034 3.88692158 187.710191 3.88692158 187.726347 3.88692158 187.742778 3.88692158 187.758934 3.88692158 187.775091 3.88692158 187.791247 3.88692158 187.807678 3.88692158"></polyline>
            <path d="M189.026537,1.78984615 C189.038403,2.76126738 189.05027,3.7326886 189.062136,4.70410983" id="Path-110"></path>
            <path d="M190.507186,1.64328373 C190.606203,5.40379146 191.511899,4.37911935 189.753854,5.67690079" id="Path-111"></path>
            <path d="M183.309318,6.78529625 C185.754978,6.75808403 188.200637,6.73087182 190.646297,6.70365961" id="Path-112"></path>
            <path d="M182.31309,8.77964101 C185.479039,8.76776991 188.644987,8.75589881 191.810936,8.74402771" id="Path-113"></path>
            <path d="M186.979587,5.675805 C187.015369,6.69051008 187.051151,7.70521516 187.086932,8.71992024" id="Path-114"></path>
            <path d="M0.685178736,2.41793168 C0.797009742,5.16617865 0.908840747,7.91442561 1.02067175,10.6626726" id="Path-30"></path>
            <path d="M0.713987376,2.0051294 C7.73786672,2.23091211 3.86115068,7.62917615 0.980923124,7.05502864" id="Path-31"></path>
            <path d="M5.63005407,2.3245771 C5.76949457,4.73252087 8.1857356,18.0844457 8.89673499,5.18939574 C8.95236443,4.18047181 8.72315382,3.17595141 8.63636324,2.16922925" id="Path-32"></path>
            <path d="M10.608114,2.42923634 C10.6106667,5.01727323 10.6132194,7.60531013 10.615772,10.193347" id="Path-33"></path>
            <path d="M10.615772,2.39422837 C11.6650386,2.48770451 13.0074653,1.94117113 13.7635717,2.67465677 C17.4774768,6.27745123 10.9436269,5.36670369 11.0581123,6.32387267 C11.1774086,7.32126433 13.2828987,6.32528332 13.9841949,7.04445332 C17.6389134,10.7923194 10.8480283,10.3470386 10.2675157,10.3224389" id="Path-34"></path>
            <path d="M15.9625097,2.6418368 C16.184895,11.804625 13.5523138,10.4979719 20.246245,10.3483302" id="Path-35"></path>
            <path d="M25.7738571,3.58595791 C20.7755636,-1.62747949 22.2067256,14.9675563 25.9091483,8.49035529" id="Path-36"></path>
            <path d="M20.6225806,2.35411508 C20.7385445,5.08534428 20.8545084,7.81657348 20.9704723,10.5478027" id="Path-37"></path>
        </g>
        <rect id="Rectangle" stroke="#979797" fill="#D8D8D8" x="33.5" y="652.5" width="38" height="47"></rect>
        <rect id="Rectangle-Copy-5" stroke="#979797" fill="#D8D8D8" x="315.5" y="499.5" width="38" height="200"></rect>
        <rect id="Rectangle-Copy-9" stroke="#979797" fill="#D8D8D8" x="597.5" y="432.5" width="38" height="267"></rect>
        <rect id="Rectangle-Copy-2" stroke="#979797" fill="#D8D8D8" x="102.5" y="670.5" width="38" height="29"></rect>
        <rect id="Rectangle-Copy-6" stroke="#979797" fill="#D8D8D8" x="384.5" y="459.5" width="38" height="240"></rect>
        <rect id="Rectangle-Copy-10" stroke="#979797" fill="#D8D8D8" x="666.5" y="507.5" width="38" height="192"></rect>
        <rect id="Rectangle-Copy-3" stroke="#979797" fill="#D8D8D8" x="174.5" y="628.5" width="38" height="71"></rect>
        <rect id="Rectangle-Copy-7" stroke="#979797" fill="#D8D8D8" x="456.5" y="408.5" width="38" height="291"></rect>
        <rect id="Rectangle-Copy-11" stroke="#979797" fill="#D8D8D8" x="738.5" y="566.5" width="38" height="133"></rect>
        <rect id="Rectangle-Copy-4" stroke="#979797" fill="#D8D8D8" x="243.5" y="555.5" width="38" height="143"></rect>
        <rect id="Rectangle-Copy-8" stroke="#979797" fill="#D8D8D8" x="525.5" y="387.5" width="38" height="312"></rect>
        <rect id="Rectangle-Copy-12" stroke="#979797" fill="#D8D8D8" x="807.5" y="628.5" width="38" height="71"></rect>
        <polyline id="Path-115" stroke="#979797" points="52 650.005765 122.56863 670 194.936229 627.391813 264.028166 553.624107 335.039324 497.885849 404.366954 458.256331 476.647972 407.165551 546.43737 386 617.992066 434.666282 686.530844 507.70349 757.681494 566.275578 828 627.391813"></polyline>
    </g>
</svg>